<mxfile host="app.diagrams.net" agent="Mozilla/5.0 (Windows NT 10.0; Win64; x64) AppleWebKit/537.36 (KHTML, like Gecko) Chrome/128.0.0.0 Safari/537.36" version="24.7.10">
  <diagram name="Página-1" id="DbJAgH3h_GtladmtDJ87">
    <mxGraphModel dx="2261" dy="772" grid="1" gridSize="10" guides="1" tooltips="1" connect="1" arrows="1" fold="1" page="1" pageScale="1" pageWidth="827" pageHeight="1169" math="0" shadow="0">
      <root>
        <mxCell id="0" />
        <mxCell id="1" parent="0" />
        <mxCell id="FdVEEAWy1tMdx82FZ4Gj-1" value="&lt;span style=&quot;font-size: 20px;&quot;&gt;Modelação de Dados&lt;/span&gt;" style="text;html=1;align=center;verticalAlign=middle;resizable=0;points=[];autosize=1;rounded=0;glass=0;rotation=0;fillColor=#dae8fc;strokeColor=#6c8ebf;" vertex="1" parent="1">
          <mxGeometry x="450" y="30" width="210" height="40" as="geometry" />
        </mxCell>
        <mxCell id="FdVEEAWy1tMdx82FZ4Gj-2" value="Modelo de dados é baseado no conceito de relações:" style="text;html=1;align=center;verticalAlign=middle;resizable=0;points=[];autosize=1;" vertex="1" parent="1">
          <mxGeometry x="395" y="90" width="310" height="30" as="geometry" />
        </mxCell>
        <mxCell id="FdVEEAWy1tMdx82FZ4Gj-3" value="&lt;span style=&quot;font-size: 20px;&quot;&gt;Tabela&lt;/span&gt;" style="text;html=1;align=center;verticalAlign=middle;resizable=0;points=[];autosize=1;rounded=0;glass=0;rotation=0;fillColor=#f5f5f5;fontColor=#333333;strokeColor=#666666;" vertex="1" parent="1">
          <mxGeometry x="119" y="200" width="80" height="40" as="geometry" />
        </mxCell>
        <mxCell id="FdVEEAWy1tMdx82FZ4Gj-4" value="Representam objectos da vida real que consite em armazenar dados." style="text;html=1;align=center;verticalAlign=middle;resizable=0;points=[];autosize=1;" vertex="1" parent="1">
          <mxGeometry x="-36" y="260" width="390" height="30" as="geometry" />
        </mxCell>
        <mxCell id="FdVEEAWy1tMdx82FZ4Gj-5" value="snake_case." style="text;html=1;align=center;verticalAlign=middle;resizable=0;points=[];autosize=1;" vertex="1" parent="1">
          <mxGeometry x="505" y="290" width="90" height="30" as="geometry" />
        </mxCell>
        <mxCell id="FdVEEAWy1tMdx82FZ4Gj-6" value="&lt;span style=&quot;font-size: 20px;&quot;&gt;Atributo&lt;/span&gt;" style="text;html=1;align=center;verticalAlign=middle;resizable=0;points=[];autosize=1;rounded=0;glass=0;rotation=0;fillColor=#f5f5f5;fontColor=#333333;strokeColor=#666666;" vertex="1" parent="1">
          <mxGeometry x="505" y="200" width="90" height="40" as="geometry" />
        </mxCell>
        <mxCell id="FdVEEAWy1tMdx82FZ4Gj-7" value="Nome dos valores dos dados que queremos guardar." style="text;html=1;align=center;verticalAlign=middle;resizable=0;points=[];autosize=1;" vertex="1" parent="1">
          <mxGeometry x="400" y="260" width="310" height="30" as="geometry" />
        </mxCell>
        <mxCell id="FdVEEAWy1tMdx82FZ4Gj-8" value="&lt;span style=&quot;font-size: 20px;&quot;&gt;Diagrama Entidade - Relação&lt;/span&gt;" style="text;html=1;align=center;verticalAlign=middle;resizable=0;points=[];autosize=1;rounded=0;glass=0;rotation=0;fillColor=#f5f5f5;fontColor=#333333;strokeColor=#666666;" vertex="1" parent="1">
          <mxGeometry x="95" y="400" width="290" height="40" as="geometry" />
        </mxCell>
        <mxCell id="FdVEEAWy1tMdx82FZ4Gj-9" value="&lt;span style=&quot;font-size: 20px;&quot;&gt;Modelo de dados&lt;/span&gt;" style="text;html=1;align=center;verticalAlign=middle;resizable=0;points=[];autosize=1;rounded=0;glass=0;rotation=0;fillColor=#f5f5f5;fontColor=#333333;strokeColor=#666666;" vertex="1" parent="1">
          <mxGeometry x="980" y="400" width="180" height="40" as="geometry" />
        </mxCell>
        <mxCell id="FdVEEAWy1tMdx82FZ4Gj-10" style="rounded=0;orthogonalLoop=1;jettySize=auto;html=1;exitX=1;exitY=0.5;exitDx=0;exitDy=0;entryX=0;entryY=0.5;entryDx=0;entryDy=0;endArrow=none;endFill=0;strokeColor=#9999FF;" edge="1" parent="1" source="FdVEEAWy1tMdx82FZ4Gj-12" target="FdVEEAWy1tMdx82FZ4Gj-13">
          <mxGeometry relative="1" as="geometry" />
        </mxCell>
        <mxCell id="FdVEEAWy1tMdx82FZ4Gj-11" style="edgeStyle=orthogonalEdgeStyle;rounded=0;orthogonalLoop=1;jettySize=auto;html=1;entryX=0.5;entryY=0;entryDx=0;entryDy=0;endArrow=none;endFill=0;startArrow=ERone;startFill=0;" edge="1" parent="1" source="FdVEEAWy1tMdx82FZ4Gj-12" target="FdVEEAWy1tMdx82FZ4Gj-18">
          <mxGeometry relative="1" as="geometry" />
        </mxCell>
        <mxCell id="FdVEEAWy1tMdx82FZ4Gj-12" value="Pizzaria" style="whiteSpace=wrap;html=1;align=center;fillColor=#fff2cc;strokeColor=#d6b656;" vertex="1" parent="1">
          <mxGeometry x="184" y="535" width="100" height="40" as="geometry" />
        </mxCell>
        <mxCell id="FdVEEAWy1tMdx82FZ4Gj-13" value="Nome" style="ellipse;whiteSpace=wrap;html=1;align=center;fillColor=#dae8fc;strokeColor=#6c8ebf;" vertex="1" parent="1">
          <mxGeometry x="314" y="475" width="100" height="40" as="geometry" />
        </mxCell>
        <mxCell id="FdVEEAWy1tMdx82FZ4Gj-14" style="edgeStyle=orthogonalEdgeStyle;rounded=0;orthogonalLoop=1;jettySize=auto;html=1;exitX=0;exitY=0.5;exitDx=0;exitDy=0;entryX=1;entryY=0.5;entryDx=0;entryDy=0;endArrow=none;endFill=0;strokeColor=#9999FF;" edge="1" parent="1" source="FdVEEAWy1tMdx82FZ4Gj-15" target="FdVEEAWy1tMdx82FZ4Gj-12">
          <mxGeometry relative="1" as="geometry" />
        </mxCell>
        <mxCell id="FdVEEAWy1tMdx82FZ4Gj-15" value="Morada" style="ellipse;whiteSpace=wrap;html=1;align=center;fillColor=#dae8fc;strokeColor=#6c8ebf;" vertex="1" parent="1">
          <mxGeometry x="314" y="535" width="100" height="40" as="geometry" />
        </mxCell>
        <mxCell id="FdVEEAWy1tMdx82FZ4Gj-16" style="rounded=0;orthogonalLoop=1;jettySize=auto;html=1;entryX=1;entryY=0.5;entryDx=0;entryDy=0;endArrow=none;endFill=0;strokeColor=#9999FF;" edge="1" parent="1" source="FdVEEAWy1tMdx82FZ4Gj-17" target="FdVEEAWy1tMdx82FZ4Gj-12">
          <mxGeometry relative="1" as="geometry" />
        </mxCell>
        <mxCell id="FdVEEAWy1tMdx82FZ4Gj-17" value="Telefone" style="ellipse;whiteSpace=wrap;html=1;align=center;fillColor=#dae8fc;strokeColor=#6c8ebf;" vertex="1" parent="1">
          <mxGeometry x="314" y="595" width="100" height="40" as="geometry" />
        </mxCell>
        <mxCell id="FdVEEAWy1tMdx82FZ4Gj-18" value="Contém" style="shape=rhombus;perimeter=rhombusPerimeter;whiteSpace=wrap;html=1;align=center;fillColor=#ffe6cc;strokeColor=#d79b00;" vertex="1" parent="1">
          <mxGeometry x="34" y="525" width="120" height="60" as="geometry" />
        </mxCell>
        <mxCell id="FdVEEAWy1tMdx82FZ4Gj-32" value="As relações definem como as tableas estão conectadas em si.&lt;br&gt;Conecta um stributo referêmcia, como liha/traço, a um atributo chave de outra tabela:&lt;br&gt;&lt;b&gt;Chave Primária&lt;/b&gt; ou Primary Key.&lt;br&gt;&lt;b&gt;Chave Estrangeira&lt;/b&gt; ou Foreign Key.&lt;div&gt;&lt;br/&gt;&lt;/div&gt;" style="text;html=1;align=center;verticalAlign=middle;resizable=0;points=[];autosize=1;" vertex="1" parent="1">
          <mxGeometry x="710" y="260" width="480" height="90" as="geometry" />
        </mxCell>
        <mxCell id="FdVEEAWy1tMdx82FZ4Gj-33" value="&lt;span style=&quot;font-size: 20px;&quot;&gt;Relação&lt;/span&gt;" style="text;html=1;align=center;verticalAlign=middle;resizable=0;points=[];autosize=1;rounded=0;glass=0;rotation=0;fillColor=#f5f5f5;fontColor=#333333;strokeColor=#666666;" vertex="1" parent="1">
          <mxGeometry x="900" y="200" width="100" height="40" as="geometry" />
        </mxCell>
        <mxCell id="FdVEEAWy1tMdx82FZ4Gj-35" value="Cliente" style="shape=table;startSize=30;container=1;collapsible=1;childLayout=tableLayout;fixedRows=1;rowLines=0;fontStyle=1;align=center;resizeLast=1;html=1;fillColor=#fad9d5;strokeColor=#ae4132;" vertex="1" parent="1">
          <mxGeometry x="640" y="510" width="180" height="150" as="geometry" />
        </mxCell>
        <mxCell id="FdVEEAWy1tMdx82FZ4Gj-36" value="" style="shape=tableRow;horizontal=0;startSize=0;swimlaneHead=0;swimlaneBody=0;collapsible=0;dropTarget=0;points=[[0,0.5],[1,0.5]];portConstraint=eastwest;top=0;left=0;right=0;bottom=1;" vertex="1" parent="FdVEEAWy1tMdx82FZ4Gj-35">
          <mxGeometry y="30" width="180" height="30" as="geometry" />
        </mxCell>
        <mxCell id="FdVEEAWy1tMdx82FZ4Gj-37" value="PK" style="shape=partialRectangle;connectable=0;fillColor=none;top=0;left=0;bottom=0;right=0;fontStyle=1;overflow=hidden;whiteSpace=wrap;html=1;" vertex="1" parent="FdVEEAWy1tMdx82FZ4Gj-36">
          <mxGeometry width="30" height="30" as="geometry">
            <mxRectangle width="30" height="30" as="alternateBounds" />
          </mxGeometry>
        </mxCell>
        <mxCell id="FdVEEAWy1tMdx82FZ4Gj-38" value="codigoCliente" style="shape=partialRectangle;connectable=0;fillColor=none;top=0;left=0;bottom=0;right=0;align=left;spacingLeft=6;fontStyle=5;overflow=hidden;whiteSpace=wrap;html=1;" vertex="1" parent="FdVEEAWy1tMdx82FZ4Gj-36">
          <mxGeometry x="30" width="150" height="30" as="geometry">
            <mxRectangle width="150" height="30" as="alternateBounds" />
          </mxGeometry>
        </mxCell>
        <mxCell id="FdVEEAWy1tMdx82FZ4Gj-39" value="" style="shape=tableRow;horizontal=0;startSize=0;swimlaneHead=0;swimlaneBody=0;fillColor=#dae8fc;collapsible=0;dropTarget=0;points=[[0,0.5],[1,0.5]];portConstraint=eastwest;top=0;left=0;right=0;bottom=0;strokeColor=#6c8ebf;" vertex="1" parent="FdVEEAWy1tMdx82FZ4Gj-35">
          <mxGeometry y="60" width="180" height="30" as="geometry" />
        </mxCell>
        <mxCell id="FdVEEAWy1tMdx82FZ4Gj-40" value="" style="shape=partialRectangle;connectable=0;fillColor=none;top=0;left=0;bottom=0;right=0;editable=1;overflow=hidden;whiteSpace=wrap;html=1;" vertex="1" parent="FdVEEAWy1tMdx82FZ4Gj-39">
          <mxGeometry width="30" height="30" as="geometry">
            <mxRectangle width="30" height="30" as="alternateBounds" />
          </mxGeometry>
        </mxCell>
        <mxCell id="FdVEEAWy1tMdx82FZ4Gj-41" value="nome varchar" style="shape=partialRectangle;connectable=0;fillColor=none;top=0;left=0;bottom=0;right=0;align=left;spacingLeft=6;overflow=hidden;whiteSpace=wrap;html=1;" vertex="1" parent="FdVEEAWy1tMdx82FZ4Gj-39">
          <mxGeometry x="30" width="150" height="30" as="geometry">
            <mxRectangle width="150" height="30" as="alternateBounds" />
          </mxGeometry>
        </mxCell>
        <mxCell id="FdVEEAWy1tMdx82FZ4Gj-42" value="" style="shape=tableRow;horizontal=0;startSize=0;swimlaneHead=0;swimlaneBody=0;fillColor=#f5f5f5;collapsible=0;dropTarget=0;points=[[0,0.5],[1,0.5]];portConstraint=eastwest;top=0;left=0;right=0;bottom=0;strokeColor=#666666;fontColor=#333333;" vertex="1" parent="FdVEEAWy1tMdx82FZ4Gj-35">
          <mxGeometry y="90" width="180" height="30" as="geometry" />
        </mxCell>
        <mxCell id="FdVEEAWy1tMdx82FZ4Gj-43" value="" style="shape=partialRectangle;connectable=0;fillColor=none;top=0;left=0;bottom=0;right=0;editable=1;overflow=hidden;whiteSpace=wrap;html=1;" vertex="1" parent="FdVEEAWy1tMdx82FZ4Gj-42">
          <mxGeometry width="30" height="30" as="geometry">
            <mxRectangle width="30" height="30" as="alternateBounds" />
          </mxGeometry>
        </mxCell>
        <mxCell id="FdVEEAWy1tMdx82FZ4Gj-44" value="morada varchar" style="shape=partialRectangle;connectable=0;fillColor=none;top=0;left=0;bottom=0;right=0;align=left;spacingLeft=6;overflow=hidden;whiteSpace=wrap;html=1;" vertex="1" parent="FdVEEAWy1tMdx82FZ4Gj-42">
          <mxGeometry x="30" width="150" height="30" as="geometry">
            <mxRectangle width="150" height="30" as="alternateBounds" />
          </mxGeometry>
        </mxCell>
        <mxCell id="FdVEEAWy1tMdx82FZ4Gj-45" value="" style="shape=tableRow;horizontal=0;startSize=0;swimlaneHead=0;swimlaneBody=0;fillColor=#dae8fc;collapsible=0;dropTarget=0;points=[[0,0.5],[1,0.5]];portConstraint=eastwest;top=0;left=0;right=0;bottom=0;strokeColor=#6c8ebf;" vertex="1" parent="FdVEEAWy1tMdx82FZ4Gj-35">
          <mxGeometry y="120" width="180" height="30" as="geometry" />
        </mxCell>
        <mxCell id="FdVEEAWy1tMdx82FZ4Gj-46" value="" style="shape=partialRectangle;connectable=0;fillColor=none;top=0;left=0;bottom=0;right=0;editable=1;overflow=hidden;whiteSpace=wrap;html=1;" vertex="1" parent="FdVEEAWy1tMdx82FZ4Gj-45">
          <mxGeometry width="30" height="30" as="geometry">
            <mxRectangle width="30" height="30" as="alternateBounds" />
          </mxGeometry>
        </mxCell>
        <mxCell id="FdVEEAWy1tMdx82FZ4Gj-47" value="telef int" style="shape=partialRectangle;connectable=0;fillColor=none;top=0;left=0;bottom=0;right=0;align=left;spacingLeft=6;overflow=hidden;whiteSpace=wrap;html=1;" vertex="1" parent="FdVEEAWy1tMdx82FZ4Gj-45">
          <mxGeometry x="30" width="150" height="30" as="geometry">
            <mxRectangle width="150" height="30" as="alternateBounds" />
          </mxGeometry>
        </mxCell>
        <mxCell id="FdVEEAWy1tMdx82FZ4Gj-48" value="Encomenda" style="shape=table;startSize=30;container=1;collapsible=1;childLayout=tableLayout;fixedRows=1;rowLines=0;fontStyle=1;align=center;resizeLast=1;html=1;fillColor=#fad9d5;strokeColor=#ae4132;" vertex="1" parent="1">
          <mxGeometry x="885" y="510" width="180" height="150" as="geometry" />
        </mxCell>
        <mxCell id="FdVEEAWy1tMdx82FZ4Gj-49" value="" style="shape=tableRow;horizontal=0;startSize=0;swimlaneHead=0;swimlaneBody=0;collapsible=0;dropTarget=0;points=[[0,0.5],[1,0.5]];portConstraint=eastwest;top=0;left=0;right=0;bottom=1;" vertex="1" parent="FdVEEAWy1tMdx82FZ4Gj-48">
          <mxGeometry y="30" width="180" height="30" as="geometry" />
        </mxCell>
        <mxCell id="FdVEEAWy1tMdx82FZ4Gj-50" value="PK" style="shape=partialRectangle;connectable=0;fillColor=none;top=0;left=0;bottom=0;right=0;fontStyle=1;overflow=hidden;whiteSpace=wrap;html=1;" vertex="1" parent="FdVEEAWy1tMdx82FZ4Gj-49">
          <mxGeometry width="30" height="30" as="geometry">
            <mxRectangle width="30" height="30" as="alternateBounds" />
          </mxGeometry>
        </mxCell>
        <mxCell id="FdVEEAWy1tMdx82FZ4Gj-51" value="codigoEncomenda" style="shape=partialRectangle;connectable=0;fillColor=none;top=0;left=0;bottom=0;right=0;align=left;spacingLeft=6;fontStyle=5;overflow=hidden;whiteSpace=wrap;html=1;" vertex="1" parent="FdVEEAWy1tMdx82FZ4Gj-49">
          <mxGeometry x="30" width="150" height="30" as="geometry">
            <mxRectangle width="150" height="30" as="alternateBounds" />
          </mxGeometry>
        </mxCell>
        <mxCell id="FdVEEAWy1tMdx82FZ4Gj-52" value="" style="shape=tableRow;horizontal=0;startSize=0;swimlaneHead=0;swimlaneBody=0;fillColor=#dae8fc;collapsible=0;dropTarget=0;points=[[0,0.5],[1,0.5]];portConstraint=eastwest;top=0;left=0;right=0;bottom=0;strokeColor=#6c8ebf;" vertex="1" parent="FdVEEAWy1tMdx82FZ4Gj-48">
          <mxGeometry y="60" width="180" height="30" as="geometry" />
        </mxCell>
        <mxCell id="FdVEEAWy1tMdx82FZ4Gj-53" value="FK" style="shape=partialRectangle;connectable=0;fillColor=none;top=0;left=0;bottom=0;right=0;editable=1;overflow=hidden;whiteSpace=wrap;html=1;" vertex="1" parent="FdVEEAWy1tMdx82FZ4Gj-52">
          <mxGeometry width="30" height="30" as="geometry">
            <mxRectangle width="30" height="30" as="alternateBounds" />
          </mxGeometry>
        </mxCell>
        <mxCell id="FdVEEAWy1tMdx82FZ4Gj-54" value="codigoCliente int" style="shape=partialRectangle;connectable=0;fillColor=none;top=0;left=0;bottom=0;right=0;align=left;spacingLeft=6;overflow=hidden;whiteSpace=wrap;html=1;" vertex="1" parent="FdVEEAWy1tMdx82FZ4Gj-52">
          <mxGeometry x="30" width="150" height="30" as="geometry">
            <mxRectangle width="150" height="30" as="alternateBounds" />
          </mxGeometry>
        </mxCell>
        <mxCell id="FdVEEAWy1tMdx82FZ4Gj-55" value="" style="shape=tableRow;horizontal=0;startSize=0;swimlaneHead=0;swimlaneBody=0;fillColor=#f5f5f5;collapsible=0;dropTarget=0;points=[[0,0.5],[1,0.5]];portConstraint=eastwest;top=0;left=0;right=0;bottom=0;strokeColor=#666666;fontColor=#333333;" vertex="1" parent="FdVEEAWy1tMdx82FZ4Gj-48">
          <mxGeometry y="90" width="180" height="30" as="geometry" />
        </mxCell>
        <mxCell id="FdVEEAWy1tMdx82FZ4Gj-56" value="" style="shape=partialRectangle;connectable=0;fillColor=none;top=0;left=0;bottom=0;right=0;editable=1;overflow=hidden;whiteSpace=wrap;html=1;" vertex="1" parent="FdVEEAWy1tMdx82FZ4Gj-55">
          <mxGeometry width="30" height="30" as="geometry">
            <mxRectangle width="30" height="30" as="alternateBounds" />
          </mxGeometry>
        </mxCell>
        <mxCell id="FdVEEAWy1tMdx82FZ4Gj-57" value="morada varchar" style="shape=partialRectangle;connectable=0;fillColor=none;top=0;left=0;bottom=0;right=0;align=left;spacingLeft=6;overflow=hidden;whiteSpace=wrap;html=1;" vertex="1" parent="FdVEEAWy1tMdx82FZ4Gj-55">
          <mxGeometry x="30" width="150" height="30" as="geometry">
            <mxRectangle width="150" height="30" as="alternateBounds" />
          </mxGeometry>
        </mxCell>
        <mxCell id="FdVEEAWy1tMdx82FZ4Gj-58" value="" style="shape=tableRow;horizontal=0;startSize=0;swimlaneHead=0;swimlaneBody=0;fillColor=#dae8fc;collapsible=0;dropTarget=0;points=[[0,0.5],[1,0.5]];portConstraint=eastwest;top=0;left=0;right=0;bottom=0;strokeColor=#6c8ebf;" vertex="1" parent="FdVEEAWy1tMdx82FZ4Gj-48">
          <mxGeometry y="120" width="180" height="30" as="geometry" />
        </mxCell>
        <mxCell id="FdVEEAWy1tMdx82FZ4Gj-59" value="" style="shape=partialRectangle;connectable=0;fillColor=none;top=0;left=0;bottom=0;right=0;editable=1;overflow=hidden;whiteSpace=wrap;html=1;" vertex="1" parent="FdVEEAWy1tMdx82FZ4Gj-58">
          <mxGeometry width="30" height="30" as="geometry">
            <mxRectangle width="30" height="30" as="alternateBounds" />
          </mxGeometry>
        </mxCell>
        <mxCell id="FdVEEAWy1tMdx82FZ4Gj-60" value="telef int" style="shape=partialRectangle;connectable=0;fillColor=none;top=0;left=0;bottom=0;right=0;align=left;spacingLeft=6;overflow=hidden;whiteSpace=wrap;html=1;" vertex="1" parent="FdVEEAWy1tMdx82FZ4Gj-58">
          <mxGeometry x="30" width="150" height="30" as="geometry">
            <mxRectangle width="150" height="30" as="alternateBounds" />
          </mxGeometry>
        </mxCell>
        <mxCell id="FdVEEAWy1tMdx82FZ4Gj-61" value="LinhaEncomenda" style="shape=table;startSize=30;container=1;collapsible=1;childLayout=tableLayout;fixedRows=1;rowLines=0;fontStyle=1;align=center;resizeLast=1;html=1;fillColor=#fad9d5;strokeColor=#ae4132;" vertex="1" parent="1">
          <mxGeometry x="1124" y="510" width="180" height="150" as="geometry" />
        </mxCell>
        <mxCell id="FdVEEAWy1tMdx82FZ4Gj-62" value="" style="shape=tableRow;horizontal=0;startSize=0;swimlaneHead=0;swimlaneBody=0;collapsible=0;dropTarget=0;points=[[0,0.5],[1,0.5]];portConstraint=eastwest;top=0;left=0;right=0;bottom=1;" vertex="1" parent="FdVEEAWy1tMdx82FZ4Gj-61">
          <mxGeometry y="30" width="180" height="30" as="geometry" />
        </mxCell>
        <mxCell id="FdVEEAWy1tMdx82FZ4Gj-63" value="PK" style="shape=partialRectangle;connectable=0;fillColor=none;top=0;left=0;bottom=0;right=0;fontStyle=1;overflow=hidden;whiteSpace=wrap;html=1;" vertex="1" parent="FdVEEAWy1tMdx82FZ4Gj-62">
          <mxGeometry width="30" height="30" as="geometry">
            <mxRectangle width="30" height="30" as="alternateBounds" />
          </mxGeometry>
        </mxCell>
        <mxCell id="FdVEEAWy1tMdx82FZ4Gj-64" value="codigoEncomenda" style="shape=partialRectangle;connectable=0;fillColor=none;top=0;left=0;bottom=0;right=0;align=left;spacingLeft=6;fontStyle=5;overflow=hidden;whiteSpace=wrap;html=1;" vertex="1" parent="FdVEEAWy1tMdx82FZ4Gj-62">
          <mxGeometry x="30" width="150" height="30" as="geometry">
            <mxRectangle width="150" height="30" as="alternateBounds" />
          </mxGeometry>
        </mxCell>
        <mxCell id="FdVEEAWy1tMdx82FZ4Gj-65" value="" style="shape=tableRow;horizontal=0;startSize=0;swimlaneHead=0;swimlaneBody=0;fillColor=#dae8fc;collapsible=0;dropTarget=0;points=[[0,0.5],[1,0.5]];portConstraint=eastwest;top=0;left=0;right=0;bottom=0;strokeColor=#6c8ebf;" vertex="1" parent="FdVEEAWy1tMdx82FZ4Gj-61">
          <mxGeometry y="60" width="180" height="30" as="geometry" />
        </mxCell>
        <mxCell id="FdVEEAWy1tMdx82FZ4Gj-66" value="PK" style="shape=partialRectangle;connectable=0;fillColor=none;top=0;left=0;bottom=0;right=0;editable=1;overflow=hidden;whiteSpace=wrap;html=1;" vertex="1" parent="FdVEEAWy1tMdx82FZ4Gj-65">
          <mxGeometry width="30" height="30" as="geometry">
            <mxRectangle width="30" height="30" as="alternateBounds" />
          </mxGeometry>
        </mxCell>
        <mxCell id="FdVEEAWy1tMdx82FZ4Gj-67" value="codProduto int" style="shape=partialRectangle;connectable=0;fillColor=none;top=0;left=0;bottom=0;right=0;align=left;spacingLeft=6;overflow=hidden;whiteSpace=wrap;html=1;" vertex="1" parent="FdVEEAWy1tMdx82FZ4Gj-65">
          <mxGeometry x="30" width="150" height="30" as="geometry">
            <mxRectangle width="150" height="30" as="alternateBounds" />
          </mxGeometry>
        </mxCell>
        <mxCell id="FdVEEAWy1tMdx82FZ4Gj-68" value="" style="shape=tableRow;horizontal=0;startSize=0;swimlaneHead=0;swimlaneBody=0;fillColor=#f5f5f5;collapsible=0;dropTarget=0;points=[[0,0.5],[1,0.5]];portConstraint=eastwest;top=0;left=0;right=0;bottom=0;strokeColor=#666666;fontColor=#333333;" vertex="1" parent="FdVEEAWy1tMdx82FZ4Gj-61">
          <mxGeometry y="90" width="180" height="30" as="geometry" />
        </mxCell>
        <mxCell id="FdVEEAWy1tMdx82FZ4Gj-69" value="" style="shape=partialRectangle;connectable=0;fillColor=none;top=0;left=0;bottom=0;right=0;editable=1;overflow=hidden;whiteSpace=wrap;html=1;" vertex="1" parent="FdVEEAWy1tMdx82FZ4Gj-68">
          <mxGeometry width="30" height="30" as="geometry">
            <mxRectangle width="30" height="30" as="alternateBounds" />
          </mxGeometry>
        </mxCell>
        <mxCell id="FdVEEAWy1tMdx82FZ4Gj-70" value="quantdade int" style="shape=partialRectangle;connectable=0;fillColor=none;top=0;left=0;bottom=0;right=0;align=left;spacingLeft=6;overflow=hidden;whiteSpace=wrap;html=1;" vertex="1" parent="FdVEEAWy1tMdx82FZ4Gj-68">
          <mxGeometry x="30" width="150" height="30" as="geometry">
            <mxRectangle width="150" height="30" as="alternateBounds" />
          </mxGeometry>
        </mxCell>
        <mxCell id="FdVEEAWy1tMdx82FZ4Gj-71" value="" style="shape=tableRow;horizontal=0;startSize=0;swimlaneHead=0;swimlaneBody=0;fillColor=#dae8fc;collapsible=0;dropTarget=0;points=[[0,0.5],[1,0.5]];portConstraint=eastwest;top=0;left=0;right=0;bottom=0;strokeColor=#6c8ebf;" vertex="1" parent="FdVEEAWy1tMdx82FZ4Gj-61">
          <mxGeometry y="120" width="180" height="30" as="geometry" />
        </mxCell>
        <mxCell id="FdVEEAWy1tMdx82FZ4Gj-72" value="" style="shape=partialRectangle;connectable=0;fillColor=none;top=0;left=0;bottom=0;right=0;editable=1;overflow=hidden;whiteSpace=wrap;html=1;" vertex="1" parent="FdVEEAWy1tMdx82FZ4Gj-71">
          <mxGeometry width="30" height="30" as="geometry">
            <mxRectangle width="30" height="30" as="alternateBounds" />
          </mxGeometry>
        </mxCell>
        <mxCell id="FdVEEAWy1tMdx82FZ4Gj-73" value="desconto float" style="shape=partialRectangle;connectable=0;fillColor=none;top=0;left=0;bottom=0;right=0;align=left;spacingLeft=6;overflow=hidden;whiteSpace=wrap;html=1;" vertex="1" parent="FdVEEAWy1tMdx82FZ4Gj-71">
          <mxGeometry x="30" width="150" height="30" as="geometry">
            <mxRectangle width="150" height="30" as="alternateBounds" />
          </mxGeometry>
        </mxCell>
        <mxCell id="FdVEEAWy1tMdx82FZ4Gj-74" value="Produto" style="shape=table;startSize=30;container=1;collapsible=1;childLayout=tableLayout;fixedRows=1;rowLines=0;fontStyle=1;align=center;resizeLast=1;html=1;fillColor=#fad9d5;strokeColor=#ae4132;" vertex="1" parent="1">
          <mxGeometry x="1376" y="510" width="180" height="150" as="geometry" />
        </mxCell>
        <mxCell id="FdVEEAWy1tMdx82FZ4Gj-75" value="" style="shape=tableRow;horizontal=0;startSize=0;swimlaneHead=0;swimlaneBody=0;collapsible=0;dropTarget=0;points=[[0,0.5],[1,0.5]];portConstraint=eastwest;top=0;left=0;right=0;bottom=1;" vertex="1" parent="FdVEEAWy1tMdx82FZ4Gj-74">
          <mxGeometry y="30" width="180" height="30" as="geometry" />
        </mxCell>
        <mxCell id="FdVEEAWy1tMdx82FZ4Gj-76" value="PK" style="shape=partialRectangle;connectable=0;fillColor=none;top=0;left=0;bottom=0;right=0;fontStyle=1;overflow=hidden;whiteSpace=wrap;html=1;" vertex="1" parent="FdVEEAWy1tMdx82FZ4Gj-75">
          <mxGeometry width="30" height="30" as="geometry">
            <mxRectangle width="30" height="30" as="alternateBounds" />
          </mxGeometry>
        </mxCell>
        <mxCell id="FdVEEAWy1tMdx82FZ4Gj-77" value="codProduto" style="shape=partialRectangle;connectable=0;fillColor=none;top=0;left=0;bottom=0;right=0;align=left;spacingLeft=6;fontStyle=5;overflow=hidden;whiteSpace=wrap;html=1;" vertex="1" parent="FdVEEAWy1tMdx82FZ4Gj-75">
          <mxGeometry x="30" width="150" height="30" as="geometry">
            <mxRectangle width="150" height="30" as="alternateBounds" />
          </mxGeometry>
        </mxCell>
        <mxCell id="FdVEEAWy1tMdx82FZ4Gj-78" value="" style="shape=tableRow;horizontal=0;startSize=0;swimlaneHead=0;swimlaneBody=0;fillColor=#dae8fc;collapsible=0;dropTarget=0;points=[[0,0.5],[1,0.5]];portConstraint=eastwest;top=0;left=0;right=0;bottom=0;strokeColor=#6c8ebf;" vertex="1" parent="FdVEEAWy1tMdx82FZ4Gj-74">
          <mxGeometry y="60" width="180" height="30" as="geometry" />
        </mxCell>
        <mxCell id="FdVEEAWy1tMdx82FZ4Gj-79" value="" style="shape=partialRectangle;connectable=0;fillColor=none;top=0;left=0;bottom=0;right=0;editable=1;overflow=hidden;whiteSpace=wrap;html=1;" vertex="1" parent="FdVEEAWy1tMdx82FZ4Gj-78">
          <mxGeometry width="30" height="30" as="geometry">
            <mxRectangle width="30" height="30" as="alternateBounds" />
          </mxGeometry>
        </mxCell>
        <mxCell id="FdVEEAWy1tMdx82FZ4Gj-80" value="descricao varchar" style="shape=partialRectangle;connectable=0;fillColor=none;top=0;left=0;bottom=0;right=0;align=left;spacingLeft=6;overflow=hidden;whiteSpace=wrap;html=1;" vertex="1" parent="FdVEEAWy1tMdx82FZ4Gj-78">
          <mxGeometry x="30" width="150" height="30" as="geometry">
            <mxRectangle width="150" height="30" as="alternateBounds" />
          </mxGeometry>
        </mxCell>
        <mxCell id="FdVEEAWy1tMdx82FZ4Gj-81" value="" style="shape=tableRow;horizontal=0;startSize=0;swimlaneHead=0;swimlaneBody=0;fillColor=#f5f5f5;collapsible=0;dropTarget=0;points=[[0,0.5],[1,0.5]];portConstraint=eastwest;top=0;left=0;right=0;bottom=0;strokeColor=#666666;fontColor=#333333;" vertex="1" parent="FdVEEAWy1tMdx82FZ4Gj-74">
          <mxGeometry y="90" width="180" height="30" as="geometry" />
        </mxCell>
        <mxCell id="FdVEEAWy1tMdx82FZ4Gj-82" value="" style="shape=partialRectangle;connectable=0;fillColor=none;top=0;left=0;bottom=0;right=0;editable=1;overflow=hidden;whiteSpace=wrap;html=1;" vertex="1" parent="FdVEEAWy1tMdx82FZ4Gj-81">
          <mxGeometry width="30" height="30" as="geometry">
            <mxRectangle width="30" height="30" as="alternateBounds" />
          </mxGeometry>
        </mxCell>
        <mxCell id="FdVEEAWy1tMdx82FZ4Gj-83" value="preco float" style="shape=partialRectangle;connectable=0;fillColor=none;top=0;left=0;bottom=0;right=0;align=left;spacingLeft=6;overflow=hidden;whiteSpace=wrap;html=1;" vertex="1" parent="FdVEEAWy1tMdx82FZ4Gj-81">
          <mxGeometry x="30" width="150" height="30" as="geometry">
            <mxRectangle width="150" height="30" as="alternateBounds" />
          </mxGeometry>
        </mxCell>
        <mxCell id="FdVEEAWy1tMdx82FZ4Gj-84" value="" style="shape=tableRow;horizontal=0;startSize=0;swimlaneHead=0;swimlaneBody=0;fillColor=#dae8fc;collapsible=0;dropTarget=0;points=[[0,0.5],[1,0.5]];portConstraint=eastwest;top=0;left=0;right=0;bottom=0;strokeColor=#6c8ebf;" vertex="1" parent="FdVEEAWy1tMdx82FZ4Gj-74">
          <mxGeometry y="120" width="180" height="30" as="geometry" />
        </mxCell>
        <mxCell id="FdVEEAWy1tMdx82FZ4Gj-85" value="" style="shape=partialRectangle;connectable=0;fillColor=none;top=0;left=0;bottom=0;right=0;editable=1;overflow=hidden;whiteSpace=wrap;html=1;" vertex="1" parent="FdVEEAWy1tMdx82FZ4Gj-84">
          <mxGeometry width="30" height="30" as="geometry">
            <mxRectangle width="30" height="30" as="alternateBounds" />
          </mxGeometry>
        </mxCell>
        <mxCell id="FdVEEAWy1tMdx82FZ4Gj-86" value="obs varchar" style="shape=partialRectangle;connectable=0;fillColor=none;top=0;left=0;bottom=0;right=0;align=left;spacingLeft=6;overflow=hidden;whiteSpace=wrap;html=1;" vertex="1" parent="FdVEEAWy1tMdx82FZ4Gj-84">
          <mxGeometry x="30" width="150" height="30" as="geometry">
            <mxRectangle width="150" height="30" as="alternateBounds" />
          </mxGeometry>
        </mxCell>
        <mxCell id="FdVEEAWy1tMdx82FZ4Gj-88" style="rounded=0;orthogonalLoop=1;jettySize=auto;html=1;exitX=0;exitY=0.5;exitDx=0;exitDy=0;entryX=1;entryY=0.5;entryDx=0;entryDy=0;" edge="1" parent="1" source="FdVEEAWy1tMdx82FZ4Gj-52" target="FdVEEAWy1tMdx82FZ4Gj-36">
          <mxGeometry relative="1" as="geometry" />
        </mxCell>
        <mxCell id="FdVEEAWy1tMdx82FZ4Gj-89" style="rounded=0;orthogonalLoop=1;jettySize=auto;html=1;exitX=0;exitY=0.5;exitDx=0;exitDy=0;entryX=1;entryY=0.5;entryDx=0;entryDy=0;" edge="1" parent="1" source="FdVEEAWy1tMdx82FZ4Gj-62" target="FdVEEAWy1tMdx82FZ4Gj-49">
          <mxGeometry relative="1" as="geometry" />
        </mxCell>
        <mxCell id="FdVEEAWy1tMdx82FZ4Gj-90" style="rounded=0;orthogonalLoop=1;jettySize=auto;html=1;exitX=0;exitY=0.5;exitDx=0;exitDy=0;entryX=1;entryY=0.5;entryDx=0;entryDy=0;" edge="1" parent="1" source="FdVEEAWy1tMdx82FZ4Gj-75" target="FdVEEAWy1tMdx82FZ4Gj-65">
          <mxGeometry relative="1" as="geometry" />
        </mxCell>
        <mxCell id="FdVEEAWy1tMdx82FZ4Gj-91" value="&lt;div&gt;Este cenário apenas acontece quando tem a relação de muitos para muito e precisa de uma table auxiliar.&lt;/div&gt;" style="text;html=1;align=center;verticalAlign=middle;resizable=0;points=[];autosize=1;" vertex="1" parent="1">
          <mxGeometry x="570" y="760" width="590" height="30" as="geometry" />
        </mxCell>
        <mxCell id="FdVEEAWy1tMdx82FZ4Gj-92" style="edgeStyle=orthogonalEdgeStyle;rounded=0;orthogonalLoop=1;jettySize=auto;html=1;entryX=0.467;entryY=0.933;entryDx=0;entryDy=0;entryPerimeter=0;" edge="1" parent="1" source="FdVEEAWy1tMdx82FZ4Gj-91" target="FdVEEAWy1tMdx82FZ4Gj-71">
          <mxGeometry relative="1" as="geometry">
            <Array as="points">
              <mxPoint x="1210" y="775" />
              <mxPoint x="1210" y="663" />
              <mxPoint x="1208" y="663" />
            </Array>
          </mxGeometry>
        </mxCell>
      </root>
    </mxGraphModel>
  </diagram>
</mxfile>
